# xmcd CD database file
#
# Track frame offsets:
#	150
#	12201
#	25439
#	44426
#	65451
#	85971
#	114064
#	126010
#	140301
#	162263
#	195488
#	220980
#	245611
#
# Disc length: 3530 seconds
#
# Revision: 0
# Processed by: cddbd v1.5.2PL0 Copyright (c) Steve Scherf et al.
# Submitted via: CDex 1.70beta2
#
DISCID=ad0dc80d
DTITLE=Gilles Peterson - Fania DJ Series (Disc-2)
DYEAR=2007
DGENRE=Salsa
TTITLE0=Saona - Noro Morales Quintet 
TTITLE1=Lluvia Con Nieve - Mon Rivera 
TTITLE2=Sandstorm - Charlie Palmieri 
TTITLE3=Last Tango In Paris - Willie Rosario 
TTITLE4=Mambo Moderno - Vladamir 
TTITLE5=Vitamina - Kako's New York After Hours Orch 
TTITLE6=El Molestoso Eddie Palmieri 
TTITLE7=El Rey Del Timbal Tito Puente And His Concert Orchestra 
TTITLE8=The Oracle Sabu Martinez 
TTITLE9=Manteca Alegre Allstars 
TTITLE10=La Odisea De Tito Tico Alegre Allstars 
TTITLE11=Ricardo Ray In Orbit Ricardo Ray /Bobby Cruz 
TTITLE12=Cool Clave - The TNT Band
EXTD=YEAR: 2007
EXTT0=
EXTT1=
EXTT2=
EXTT3=
EXTT4=
EXTT5=
EXTT6=
EXTT7=
EXTT8=
EXTT9=
EXTT10=
EXTT11=
EXTT12=
PLAYORDER=
